<svg width="120" height="107" fill="none" xmlns="http://www.w3.org/2000/svg">
  <path fill-rule="evenodd" clip-rule="evenodd" d="M10.1017 80.0273c1.1844-7.5293-2.1294-15.2474-5.6953-22.3486-.4651-.9256-.933-1.8408-1.3945-2.744-.9763-1.9102-1.9251-3.7666-2.7635-5.5533-.252-.5413-.315-1.1583-.1764-1.7501l2.2554-9.3927a2.6421 2.6421 0 0 1 1.7892-1.9138c4.8259-1.5109 20.2358-6.9501 21.6218-14.9452.0252-.1636.1134-.3021.2268-.4155L39.1071 8.3105c.3278-.3148.857-.277 1.1468.0755 1.2348 1.5487 4.6745 4.9985 9.7903 3.2988l-1.5878-1.5991c-.315-.3021-.3023-.8058.0128-1.108l6.0101-5.6658c.1386-.1385.3276-.214.5292-.214H73.329c.6554 0 1.0207.768.605 1.2717l-5.8844 7.1389c-.2897.3651-.2142.8939.1764 1.1458 1.1753.764 3.6195 2.3588 6.2039 4.0452 2.0152 1.3148 4.1156 2.6853 5.7662 3.761 1.9155 1.2465 4.4985.4659 5.3677-1.6494.9703-2.3544 1.8774-6.0183 1.89-11.4701 0-.0882.0127-.1889.0504-.277L90.0495.4916c.2393-.6043 1.071-.6673 1.3986-.1007 1.2476 2.1656 3.4777 6.7612 3.4777 12.1249l1.2221-.8814c.3403-.2518.819-.1763 1.071.1511l2.6713 3.475c.1138.1511.1638.3526.1508.5414-.1761 1.8761-.6674 12.213 8.417 16.3554.164.0755.303.2015.378.3651l11.088 22.1597a.8364.8364 0 0 1 .076.3526v9.3298c0 1.4228-.605 2.77-1.676 3.7143-4.347 3.8528-15.712 14.5423-16.405 21.9456-.038.3903-.366.6925-.769.6925H81.6075c-.126 0-.2521-.0252-.3655-.0881-1.26-.6798-7.913-9.3926-9.261-17.8411-.101-.6295-.8946-.8687-1.3356-.3903l-4.3724 4.8349c-.4032.4532-.9827.705-1.5876.705-.668 0-1.235-.4784-1.3481-1.1331-.504-2.9464-2.747-10.6518-12.1466-10.6518-5.0401 0-12.89 1.939-20.1728 4.1298 0 0-8.0641 2.5181-14.024 10.5762-.2016.277-.5292.4407-.882.4407h-4.914c-.6804 0-1.197-.6044-1.0962-1.2718Zm89.1947 25.1437c-.4157 1.624-2.3182 2.354-3.717 1.41-2.5702-1.737-6.4512-4.772-9.9667-9.2289-.5165-.6548-.0504-1.6242.7939-1.6242h13.9864c.667 0 1.146.6169.982 1.259l-2.0786 8.1841Z" fill="#C99B67"/>
</svg>