<svg width="120" height="121" fill="none" xmlns="http://www.w3.org/2000/svg">
  <path fill-rule="evenodd" clip-rule="evenodd" d="M65.8047 12.1296V.1458L53.1349 0l-4.7498 8.1344 5.8065 5.9949 11.6131-1.9997ZM52.261 26.1131 36.7769 10.13l-7.7421 7.9925 13.2041 12.1376 10.0221-4.147Zm16.279 9.347-7.7305-5.8031 1.4052-6.5263 13.2718-1.0108 17.4196 13.9815-3.871 11.9858-5.8065 3.9972-5.8066-3.9972v-5.9929l-5.8065-7.9906-3.0755 1.3564Zm45.657 78.5489h-3.871c-1.069 0-1.935-.894-1.935-1.997 0-1.104.866-1.998 1.935-1.998h3.871c1.069 0 1.936.894 1.936 1.998 0 1.103-.867 1.997-1.936 1.997Zm-.004-27.9669h3.871c1.069 0 1.936-.8944 1.936-1.9976 0-1.1033-.867-1.9977-1.936-1.9977h-3.871c-1.068 0-1.935.8944-1.935 1.9977 0 1.1032.867 1.9976 1.935 1.9976Zm-23.2239-.0001 11.6129-7.9905v-7.9906L90.9691 58.0751l-7.742 7.9906-7.7421-7.9906-7.742 5.9929 7.742 9.9882-5.8065 11.9858-5.8066-9.9882-13.5486-5.9929 7.7421-15.981 5.8065-7.9906-13.5486-7.9905-7.742 7.9905-25.1617-25.9692-15.484 17.9787L6.484 57.4399 0 64.068l5.8065 17.9787L52.259 106.018l5.8065-9.9878 11.6131 7.9908 7.742 15.981 9.6776-15.981h15.4839l1.936-11.9861-13.5489-5.9929Z" fill="#C99B67"/>
</svg>