<svg width="231" height="371" fill="none" xmlns="http://www.w3.org/2000/svg">
  <path fill-rule="evenodd" clip-rule="evenodd" d="M147.611 129.497c-12.479-3.974-25.489-4.908-38.421-6.303 4.121-.909 8.582-2.124 12.779-2.59 3.862-.424 6.16 1.167 9.795 2.433 6.488 2.265 13.735 5.017 19.375 7.648-1.169-.415-2.345-.811-3.528-1.188Zm-17.772 4.965c-13.691-2.558-27.708-3.113-41.3794-5.788 3.3898-1.037 5.3102-1.941 8.913-1.598 5.3544.508 10.7734 1.605 16.0064 2.77 7.593 1.691 15.255 3.515 22.653 5.914a147 147 0 0 0-6.193-1.298Zm.658 2.672c-.937.379-4.221-.905-5.282-1.134 1.022.195 4.683 1.376 5.282 1.134Zm-27.259-.281c-10.7135-.671-21.5559-1.007-32.2877-.951 1.9264-.72 3.7665-1.622 5.6437-2.464 5.133-2.301 6.0251-1.935 11.1492-.423 6.6089 1.952 13.3798 3.063 20.1568 4.193a139.727 139.727 0 0 0-4.662-.355Zm-12.5025 6.178c-14.7899 1.122-29.3791 2.914-44.1432 4.567 3.1514-1.273 6.1824-2.893 9.1937-4.458 4.6483-2.412 8.2166-2.072 13.3977-2.074 5.5036-.003 10.9089.643 16.3799 1.265 1.35.155 6.6356.588 5.1719.7Zm-22.7886-11.238c7.8967-7.668 16.9554-14.813 26.2359-20.786 5.8902-3.791 12.2962-8.072 19.2182-4.785-11.448.476-26.4043 10.859-33.1799 19.758-.3249.421-.822.713-1.1613 1.127-1.2714 1.544.1138 1.712-.752 2.662-.1008.112-4.7258 2-4.1121 1.748-3.1374 1.294-6.3482 2.381-9.4909 3.657 1.0632-1.145 2.1414-2.273 3.2421-3.381Zm44.0491-18.372c-7.773 6.5-16.2053 9.96-25.5664 13.221 8.5493-5.498 17.1214-9.995 26.5184-13.933-.318.237-.636.473-.952.712Zm9.671 2.23c1.62-.519 2.343-.385 2.704 1.539-4.187-.159-6.175.415-10.131 1.375a57.541 57.541 0 0 1 7.427-2.914Zm5.137 1.049c-.291-.528-.416-1.536-.619-2.051 3.108-.051 5.748.606 8.388 2.236-.874.008-7.553.78-7.769-.185ZM.7728 188.851c22.7211-2.806 44.5127-3.539 67.3316-1.315-17.1917 1.507-34.4555 4.962-51.372 8.316-13.5825 2.693-27.3549 4.147-40.9764 6.581 2.5242-2.627 4.884-5.41 7.4552-7.999 4.4657-4.495 11.1566-4.782 17.5616-5.583Zm78.115 6.691c4.102-.42 8.1945-.929 12.2747-1.527 4.4347-.655 11.5085-3.579 15.9715-2.698-24.3644 7.233-50.6931 10.567-75.7395 14.643-10.411 1.695-21.0099 4.172-31.0951 7.315-14.5614 4.535-30.9856 4.513-44.8826 10.884 4.25-4.454 8.9051-10.825 13.7471-14.447 3.5189-2.635 9.3566-2.854 13.5436-3.407 6.8932-.909 13.8204-1.616 20.732-2.36 25.1595-2.711 50.2791-5.771 75.4483-8.403Zm-127.4103 24.125a189.7977 189.7977 0 0 0-5.9671 6.894c3.5093-16.46 3.3517-33.818 5.3284-50.527 1.118-9.448 2.167-19.002 3.6703-28.388 1.3292-8.288 1.6833-19.58 6.1266-26.74 3.316 3.08 5.7674 6.349 5.1087 10.826-.8473 5.758-3.3272 11.291-4.4808 17.003-1.2959 6.419-2.1734 12.952-2.9746 19.45-1.2324 9.994-1.5201 20.16-.992 30.208.1427 2.825.3242 5.647.5444 8.467.0966 1.23.7338 3.327.4622 4.477-.6632 2.828-4.6878 5.962-6.8261 8.33Zm24.5028-68.531c1.9474-9.249 3.1351-19.995 7.1862-28.665 2.2488-4.818 4.4114-6.533 7.771-1.329 2.3978 3.714-1.3692 11.866-2.5567 16.534-3.3668 13.245-5.1446 26.835-7.3725 40.303-.5817 3.529-.7545 7.019-1.13 10.552-.3131 2.929-.2321 2.755-1.9193 4.96-1.0846 1.425-2.7958 2.635-4.104 3.885-3.4292 3.277-6.9057 6.511-10.2992 9.826 5.1632-18.472 8.4844-37.32 12.4245-56.066Zm254.0207 42.008c-3.129-4.161-7.097-7.913-11.156-11.129-5.624-4.459-12.51-7.067-18.126-11.355-4.723-3.61-8.624-8.414-13.451-12.07-7.667-5.802-15.559-10.628-24.538-14.114 11.436 3.902 22.403 8.599 31.563 16.696.774.686 7.484 9.277 8.872 8.456.95-.554-3.076-6.772-3.915-8.221-6.19-10.647-18.893-17.46-28.931-24.299-11.337-7.722-23.716-12.055-36.633-16.326 11.735.648 21.622 3.662 31.452 10.265 4.836 3.245 9.309 7.037 14.293 10.051 4.418 2.672 8.662 5.136 12.475 8.722 4.271 4.019 7.702 8.399 10.536 13.533 1.065 1.932 6.267 13.625 6.407 6.197.07-3.66-4.553-8.875-6.424-11.52-3.155-4.455-6.814-8.468-10.644-12.348-6.515-6.594-12.733-13.438-20.466-18.641-4.398-2.961-9.004-5.306-14.036-6.997-3.886-1.307-7.875-2.246-11.953-2.708-3.872-.438-4.245-.392-7.326-2.392-2.648-1.721-4.908-3.562-7.871-4.789-3.019-1.252-5.589-1.431-7.835-3.139-2.65-2.019-3.677-4.387-7.097-5.651-3.144-1.163-6.36-.907-9.64-.645-10.8478.864-21.8611 3.614-30.8353 10.03-7.9311 5.672-13.3236 14.723-17.1574 23.548-2.117 4.869-.6802 4.686-6.3652 7.485-5.9767 2.944-11.9193 5.836-17.7341 9.12 9.5874-11.917 17.9226-25.111 28.4337-36.279 5.6202-5.965 11.1326-12.028 16.7514-17.99 1.6588-1.7568 14.7608-14.4115 7.4017-13.9625-1.7014.1028-4.2611 2.3771-5.8247 3.1238-3.121 1.4981-6.2199 2.8255-9.1047 4.7831-5.0009 3.3936-9.0828 7.6156-13.172 12.0066-10.5936 11.375-20.1417 23.541-25.0294 38.476-1.1575 3.534-1.5807 7.518-3.3944 10.761-1.2776 2.288-2.7778 3.078-5.3719 4.768-4.4487 2.893-8.7727 5.868-12.9859 9.103 10.7729-15.955 17.7219-33.81 26.2106-50.989C48.2967 92.6155 53.292 67.8262 62.4752 45.0043c1.7811-4.4267 3.9506-9.2976 6.9395-13.0654.9091-1.1459 3.7827-2.8637 4.0335-4.3085.663-3.8114-1.9187-2.7881-3.8138-1.692-4.6452 2.685-9.1555 8.7415-12.3296 12.8239-4.6193 5.938-9.2981 12.3795-13.2995 18.7772C30.2198 79.5744 21.0805 104.58 13.4888 129.329c-3.572 11.634-7.2555 23.46-9.0132 35.525-.8475 5.825.1157 5.981-4.7516 9.968-5.0832 4.166-9.9406 8.586-14.9837 12.793 4.5956-9.437 7.3348-21.14 10.6513-31.152 3.4723-10.488 7.4218-20.818 10.9508-31.29 5.7393-17.041 10.0351-34.4885 14.1677-51.9723 2.1949-9.2959 4.2519-18.5989 6.1332-27.9602C29.0615 33.2107 31.5201 19.32 36.9124 8.2231c.8042-1.6504 4.0718-9.3187-.6561-6.6776-2.1661 1.2075-4.7334 9.1092-5.8389 11.2396-6.2639 12.0992-11.5408 24.3843-16.2556 37.1606C5.8048 72.6-.0597 95.8151-6.6812 118.981c-3.3098-4.519-10.1829-9.494-16.1216-7.571-5.3343 1.729-7.9579 9.322-9.6361 14.079-.1865-3.291-4.2237-9.429-7.3712-9.639-1.7886-.12-4.8707 1.575-6.3664 2.282-3.6978 1.748-7.8979 3.96-10.2042 7.401-4.7264 7.058-3.8297 18.137-4.6695 26.306-2.5008 24.364-2.0527 47.888.7014 72.152.6292 5.552 1.3897 8.128-1.7693 12.504-3.6081 5-7.0865 9.916-10.6392 14.61 1.1416-2.174.11-8.819.0968-11.137-.0366-6.21.027-12.367.3493-18.572.6615-12.78-.0244-25.988-.6682-38.776-1.3257-26.348-1.2051-52.36-.3169-78.701.1861-5.5508.0612-11.0672.0272-16.6149-.0143-2.2905.7436-7.9013-2.8944-6.5599-1.0563.3891-1.8337 4.4856-2.1404 5.5246-2.8338 9.5774-3.7234 19.9382-5.0213 29.7742-1.1793 8.946-2.2566 17.907-3.004 26.897-1.436 17.271-.9618 34.042-.8744 51.342.0735 14.251 1.6186 29.744 4.2529 42.891 1.2353 6.166 3.3825 12.828 4.0079 19.042.3795 3.742-1.8105 5.129-4.3251 8.527-2.5447 3.436-5.0582 6.899-7.4868 10.418.2341-5.392-1.3028-10.967-1.6635-16.363-.3023-4.508-.5887-8.993-.9946-13.496-.3227-3.546-.6268-7.096-.941-10.645-1.6195-18.269-3.201-36.497-6.1902-54.598-4.595-27.796-9.608-56.362-9.422-84.6391.037-5.3967.211-10.7897.273-16.1878.046-4.0687-.328-8.105-.351-12.1679-.013-2.0721.931-6.0789.24-8.1435-1.999-5.974-3.732.7013-3.787 3.4448-.028 1.4455-.115 2.8868-.137 4.3316-.134 9.0791-.915 18.0339-1.364 27.1027-.643 13.0762-.068 26.0872.366 39.1572.474 14.237.118 28.572 1.648 42.757 1.974 18.283 5.927 36.461 8.408 54.696 1.079 7.941 2.585 15.795 3.402 23.773.762 7.457 3.4087 14.787 5.0206 21.675l-.0089-.528c.6246 2.928 1.6049 4.391.7151 7.078-.6273 1.887-2.3482 3.871-3.3789 5.605-2.1979 3.688-4.3079 7.419-6.4189 11.157 1.871-9.488-.665-21.459-2.672-30.779-2.218-10.312-4.922-20.874-8.087-30.931-2.461-7.821-4.498-15.509-5.241-23.65-.99-10.842-3.939-21.269-5.524-32.01-1.496-10.142-4.014-20.184-6.161-30.223-.484-2.26-2.642-13.071-6.154-8.194-.865 1.203.196 4.398.332 5.642.334 3.08.542 6.111.68 9.203.897 19.631 5.008 39.559 8.23 58.901 2.059 12.358 4.24 24.761 7.249 36.924 2.343 9.47 3.609 19.309 6.208 28.646 1.247 4.479 2.514 9.057 4.506 13.262 1.733 3.66 3.481 4.682 2.869 8.626-.875 5.638-5.676 11.491-7.842 16.95-1.771 4.463-3.578 8.934-5.266 13.428-2.358 6.296-4.568 12.702-6.637 19.097-1.201 3.704-3.53 8.485-3.748 12.252-.332 5.722 2.906 4.085 4.607.258 1.144-2.576 2.058-5.347 3.134-7.966 7.896-19.191 15.125-39.767 26.9149-56.986 4.9178-7.191 18.5121-8.924 26.4883-11.431 19.1879-6.039 39.9447-6.835 59.8536-9.042 16.0539-1.776 31.8471-3.409 47.5637-7.358 2.2958-.575 44.1887-12.909 43.1378-15.06.5867 1.207-45.8322 11.537-49.5495 11.842-11.6572.95-23.2773 1.205-34.9602 1.699-29.2222 1.237-57.9654 1.939-84.518 15.746 3.3506-5.27 7.3588-15.218 13.2404-17.259 11.3357-3.938 23.2827-6.481 34.703-10.321 11.8719-3.986 24.0635-6.656 36.005-10.35 11.9281-3.69 23.8299-7.513 35.9394-10.616 12.172-3.119 24.7458-6.369 37.3936-5.968 4.8682.155 9.75.586 14.5975 1.044 1.8307.173 16.4012 2.867 8.5224-.479-5.1022-2.169-11.7819-2.336-17.2475-3.132-6.2678-.91-12.2758-1.718-18.6107-1.668-13.7938.106-27.6503 3.34-40.9837 6.541-15.9575 3.827-32.5693 7.625-47.8016 13.784-13.9605 5.645-27.9925 11.065-41.9536 16.64 2.5387-3.886 5.2388-7.655 7.8801-11.472 1.2828-1.857 2.6363-4.87 4.4577-6.138 2.7798-1.937 8.6288-2.44 11.8575-3.515 12.9904-4.319 26.0398-9.392 39.3511-12.605 21.4026-5.168 43.3143-8.373 64.8503-12.972 12.5682-2.681 25.8776-5.047 38.7283-4.819 4.834.088 9.6752-.088 14.4212.933 1.679.36 3.793 1.29 5.523 1.486 5.174.58 1.335-1.909-1.804-2.997-24.8786-8.613-52.3019-1.727-77.3803 1.778-16.5851 2.315-32.9584 4.677-48.7941 10.382-14.5911 5.255-28.5409 12.264-43.3744 16.879 3.8878-5.525 7.354-11.246 13.5656-14.286 6.874-3.361 14.1193-4.823 21.6212-6.097 15.5972-2.658 31.09-6.06 46.7373-8.375 14.3745-2.123 28.723-4.007 42.9716-6.905 13.8736-2.826 27.6656-4.477 40.9071-9.817 4.192-1.691 9.275-4.622 13.751-4.878 5.802-.331 12.827 1.407 18.516 2.269 13.856 2.095 28.239 4.255 41.048 10.12 12.568 5.756 21.102 14.802 30.723 24.259 3.031 2.984 6.014 6.018 9.036 9.01.673.667 4.69 5.675 5.518 5.739 5.124.384-4.542-9.772-6.21-11.853-11.527-14.381-24.001-26.375-40.959-34.21-14.452-6.678-29.561-11.021-45.321-13.245.04-2.849 11.651-2.991 11.97-5.942.421-3.935-7.704.003-9.314.487-3.058.918-6.032 2.066-9.105 2.935-7.055 1.994-14.862-.462-22.029-1.382-8.6417-1.104-17.3974-1.828-26.0883-2.351-28.7701-1.735-56.3742-.781-84.3184 6.928 5.0143-4.392 10.2452-8.566 15.5452-12.608 2.0636-1.573 3.6365-3.014 5.9743-3.752 3.9485-1.247 8.6364-.69 12.7525-1.093 16.272-1.587 32.4697-3.371 48.8315-3.873 26.9262-.826 55.0012 4.007 80.5372 12.567 12.457 4.178 24.679 8.241 35.497 15.931 2.504 1.778 4.731 3.819 7.007 5.874.941.849 6.686 7.026 6.978 6.993 2.491-.266-9.062-13.051-10.741-14.684-22.562-21.929-51.837-26.914-81.73-31.317-31.2596-4.606-62.6364-2.16-93.4329 4.789 6.1496-3.837 12.1939-10.413 19.0975-12.644 5.244-1.696 11.9-1.374 17.2061-1.918 15.3879-1.582 31.5169 1.105 46.9383 2.197 17.421 1.232 34.344 3.467 51.187 8.108 8.618 2.375 17.011 4.888 25.419 7.972 6.664 2.444 12.101 3.949 17.493 8.415 2.175 1.818 8.645 6.646 12.146 9.928 1.428 1.341 2.907 4.173 4.521 4.847 6.012 2.508-1.967-7.288-3.277-8.988 4.779 2.855 9.24 6.161 13.483 9.681.839.698 1.642 1.231 2.492 1.868.998.751 1.52 2.942 3.228 2.212 1.391-.598.897-2.031.233-2.938Z" fill="#012A32"/>
</svg>