<svg width="131" height="287" fill="none" xmlns="http://www.w3.org/2000/svg">
  <path fill-rule="evenodd" clip-rule="evenodd" d="M53.6191 136.652c2.7112-.024 5.4902 2.673 7.4435 4.259-5.0829-3.399-13.1321-3.276-18.9604-4.095-5.671-.797-11.3016-1.994-16.7764-3.714-.1199-.036-12.2597-4.012-8.1486-6.294 11.3718-6.379 25.4545 10.408 36.4419 9.844Zm-78.9067-52.3233c2.1368 5.2411 11.5998 30.9063 2.403 32.7393-7.3194 1.457-13.5984-14.161-13.992-19.3807-.649-8.6902-.2526-17.3617-1.4639-26.0403 5.095 3.9059 10.5138 6.3901 13.0529 12.6817ZM-114.665 243.059c-3.509 4.335-7.056 8.666-10.874 12.733 4.01-4.97 7.836-9.965 12.344-14.499l-1.471 1.766h.001ZM121.173 42.9015c-1.925-2.4822-9.445.5503-11.598 1.0372-5.905 1.3325-12.2967 2.5171-17.6954.1805-4.6308-1.1638 2.8655-9.1943 4.0388-12.2663.8228-2.1538 2.539-7.6141 1.1127-9.81-3.0566-4.7042-9.455.8094-12.641 2.9823-4.6656 3.1836-6.5962 5.2448-5.7893-.5985.8688-6.281 7.4521-16.8604.7919-22.4244-5.6735-4.7383-14.491 4.259-17.918 7.8738-6.4637 6.8067-9.4634 14.5066-10.8423 23.6715-.3225 2.1366-2.7966 14.7718-4.9682 12.5456-4.3334-5.5687-.9028-13.7445-4.3246-19.7454-1.9452-3.4104-4.6238-5.101-6.2586-8.9382-1.6147-3.7883-3.2455-10.5803-8.4682-10.9915-3.3148-.2598-5.5043 2.4828-6.0519 5.2171-1.737 6.4118-.4302 12.1849-.5424 18.6781-.0838 4.7513-3.2065 8.3236-2.0456 13.2122 1.8716 7.4512 4.3133 15.2656 5.5765 23.0253.3962 2.4322 1.7386 13.5049-3.024 11.34-2.682-1.2188-2.4046-11.5799-2.587-13.4008-.4378-4.3508-.373-8.6928-2.9922-12.4616-1.5013-2.1605-3.991-2.9919-5.1498-4.6878-3.4234-5.0147-3.1919-13.5149-6.0186-19.0228C1.2406 23.3757-5.48 11.395-11.3808 10.2229c-8.0795-1.6056-5.0398 9.3928-4.5129 14.2161.5853 5.34 1.4828 10.2105 1.0091 15.4206-.415 4.5996-.0859 8.3272 1.6776 12.7953C-9.9495 60.91-5.0417 68.0298-.9238 75.5507a.6856.6856 0 0 0-.0304-.0839c2.3117 4.4149 4.2359 9.8886 4.0206 14.9935-.3621 8.5575-3.324 4.2003-5.9242-1.6235-3.9228-8.7798-6.4804-18.1683-10.3559-26.9469-1.3808-3.1271-3.0366-6.301-5.9157-8.3396-1.9315-1.3674-4.3216-1.0356-5.821-1.8638-5.2175-2.8736-24.4274-35.4344-32.4936-25.7284-4.3558 5.2405 6.4586 16.4436 8.7387 20.3637 3.6417 6.261 7.5053 10.581 7.1365 18.0123-2.1176-1.967-5.0295-.9417-6.9648-2.504-2.3003-1.8589-2.9452-5.8015-4.0224-8.3797-2.9615-7.0878-6.4472-14.067-11.0799-20.1821-14.1385-18.6583-11.7604 9.5481-10.3604 18.8633.2696 1.7869.583 4.0691.862 6.1037.7225 5.3362-.5187 6.2027-1.282 10.9196-1.2967 8.0256 8.164 18.6133 13.0532 24.3625 1.5073 1.776 24.7575 30.5856 14.5645 30.3446-5.1398-.122-13.8044-14.734-16.2032-19.22-3.6877-6.898-6.221-20.68-13.8794-24.2581-2.406-1.1237-4.3923.0579-6.6215-.8288-5.2076-2.0649-8.7409-10.2177-12.5074-14.0329-7.6659-7.7642-17.0849-6.6852-10.6719 5.9113 2.54 4.9842 3.799 8.3105 5.359 13.7353 1.7795 6.1884 7.3672 9.3771 9.9392 14.7985 2.1248 4.4807-1.1821 2.0837-.9906 7.4167.1609 4.428 7.0292 9.273 10.2619 11.736 4.4898 3.422 24.7292 14.888 20.7612 21.806-3.617 6.306-15.4161-3.202-18.5708-6.094-7.8922-7.234-11.0397-16.999-15.4791-26.368-2.1635-4.567-4.6398-10.1099-8.1808-13.8068-3.105-3.2387-6.638-3.6822-10.485-5.3562-4.48-1.9479-24.225-12.3354-23.315.2177.611 8.434 12.362 12.5183 13.83 20.5683-5.285-2.354-16.348-13.0605-22.646-7.432-6.079 5.434 5.984 17.163 9.659 21.597 2.255 2.719 17.694 14.954 17.434 19.54-.272 4.787-5.812 3.073-9.014 2.437-5.475-1.084-54.502-13.153-54.284-3.161.167 7.748 19.019 5.126 21.455 9.52.895 1.614-1.054 2.402-1.399 4.125-1.262 6.316.831 8.84 7.464 9.532-6.299 15.097 14.556 7.087 21.566 4.679 4.776-1.641 25.096-9.071 26.503 1.124.473 3.428-5.266 8.828-6.244 12.181-1.885 6.469 2.866 10.439 9.107 8.251 4.2942-1.503 8.1946-5.305 10.9495-8.828 1.5838-2.021 4.3816-8.674 7.023-9.135-.2632 10.951 6.1241 5.289 11.9504.583 4.3581-3.519 15.2136-13.088 21.6911-9.282-5.0716 7.038-12.0014 12.643-17.5413 19.289-6.0629 7.281-12.3728 14.08-19.366 20.96-13.2627 13.047-26.5557 27.267-38.2237 41.688-5.708 7.054-11.889 13.774-18.007 20.472-2.209 2.415-16.073 13.251-11.215 17.653 6.573 5.953 17.981-16.561 22.672-19.166 22.302-25.367 46.0699-49.451 67.687-75.305-.89 2.917.0848 11.142 4.494 11.001-1.0392 2.397-4.1559 6.05-3.4321 8.795 1.6066 6.07 4.0632.601 6.3407.957 3.8915.61.6963 7.626-.0238 10.486-3.361 13.326-3.9918 27.887-4.8581 41.595-.4733 7.522 5.8495 28.342 16.5284 19.431 5.3316-4.447 5.8828-15.581 6.2219-21.814.2155-3.933-1.5802-14.85 1.1484-18.252 4.5167 2.387 9.9362 13.127 12.8362 16.973 6.1298 8.135 11.4937 13.306 22.1445 14.002 25.3049 1.653-5.3397-27.088-2.286-29.013 2.149-1.353 16.9651 11.145 18.925 12.638 4.3434 3.308 17.5738 11.379 22.4313 4.61 4.0738-5.68-6.3465-15.187-9.4385-18.845-2.5934-3.068-4.5299-7.267-7.7762-10.356-2.6705-2.542-6.2477-3.989-8.8923-6.409-2.7507-2.516-2.91-6.138-5.9767-9.016-3.44-3.235-8.1177-5.936-11.9049-8.881-6.3299-4.919-15.2858-11.315-16.0274-20.243 14.4596 1.795 24.3341 17.537 34.2069 26.685 4.9379 4.575 10.7514 10.445 17.9027 8.887 2.8724-.627-.2028-1.186 3.6424-1.452.8629-.059 2.0313.446 2.8673.641 5.9945 1.412 11.7365 3.597 17.6804 5.161 3.6867.971 15.5155 5.287 18.8211 1.74 5.993-6.434-19.8828-22.598-24.457-26.182-3.4608-2.709-7.6241-5.026-10.8907-7.839-2.9979-2.581-4.0056-6.025-8.0374-7.925-5.2201-2.461-11.2888-3.306-16.731-5.153-7.3202-2.486-13.4142-6.131-19.5073-10.816-2.5233-1.94-8.6492-6.115-7.3249-9.627 2.1312-5.64 11.7396 1.567 14.4615 3.111 8.0603 4.577 15.604 11.869 25.572 14.878 10.3108 3.115 15.6065 13.247 25.1009 17.783 3.4298 1.638 5.3602 1.794 8.9763 1.127 4.0236-.737 5.9307-1.204 10.6575-.002 4.2841 1.091 24.9551 7.806 23.3824-1.836-.5097-3.128-5.0435-4.418-7.3418-5.696-5.0632-2.82-9.9799-5.929-15.1111-8.624-3.2579-1.711-7.3983-2.892-10.0656-5.546-2.5299-2.518-3.0946-5.079-6.7336-6.718-4.8996-2.209-12.2659-1.852-16.5566-4.839-4.0926-2.845-7.3279-6.934-12.0138-9.562-3.7292-2.088-24.8587-9.91-24.2806-13.403 1.1713-7.099 24.9677 6.469 26.8002 7.465 11.6793 6.346 23.1331 14.81 35.1227 20.787 4.0299 2.008 7.1568 1.261 10.8694 1.806 4.9315.724 10.0834 4.111 15.091 5.284 3.9917.935 14.4303 3.377 12.3936-3.573-1.4699-5.023-11.0202-9.352-15.0131-12.392-4.5155-3.434-8.7192-7.152-13.6089-10.057-1.0517-.626-3.3695-1.417-4.1408-2.281-2.1303-2.397-.7196-6.048-3.2826-8.745 2.6912 2.586 5.3451 3.928 8.9972 3.964.9531.012 2.7891-1.01 3.9857-1.159 3.6114-.451 7.8639.759 11.4806 1.169 5.0793.57 30.6776-.159 17.4916-9.133-5.6356-3.835-11.9737-6.743-18.2505-9.316-4.9311-2.022-11.3898-3.506-15.5458-6.901-4.307-3.52-5.0969-5.337-11.358-6.268-6.434-.955-15.512-.766-20.5707-5.408-10.3038-9.4585 24.0137-3.109 27.663-2.188 7.3723 1.862 15.3424 3.322 22.8795 1.656 8.4041-1.856 15.3645-5.841 24.2035-6.244 3.942-.178 16.855.227 16.629-6.1061-.221-6.2357-14.664-6.6501-18.496-7.4184-3.96-.793-8.459-1.0634-12.2646-2.2229-3.4537-1.0545-6.0897-3.2822-9.4548-4.5813-9.5399-3.6875-17.6455 1.0164-27.1577.5748-5.0219-.2335-7.4159-2.2088-2.1666-5.7955 2.8318-1.9391 7.3808-2.1199 10.7193-3.0586 5.0221-1.4104 9.9664-3.209 14.9244-4.8381 6.6905-2.2014 44.257-13.9813 34.889-25.9794Z" fill="#89B99A"/>
</svg>