<svg width="113" height="213" fill="none" xmlns="http://www.w3.org/2000/svg">
  <path fill-rule="evenodd" clip-rule="evenodd" d="M103.588 161.186c-1.121 1.859-.396 4.87-.1 6.861-.269-4.884 3.092-10.383 4.902-14.733 1.761-4.233 3.23-8.601 4.275-13.074.024-.097 2.231-10.08-1.014-8.173-9.022 5.247-3.201 21.774-8.063 29.119Zm-3.8849-75.648c2.7379 3.6021 16.5509 20.552 21.5569 14.956 3.984-4.4528-4.21-15.126-7.642-17.5177-5.718-3.9777-11.848-7.2272-17.3289-11.5878.6139 5.0988.1172 9.8434 3.414 14.1495Zm145.6549 2.8736c4.413-.6581 8.839-1.3435 13.193-2.323-5.054.7455-10.05 1.3531-15.007 2.6191l1.815-.2967-.001.0006ZM11.547 169.667c-.9248-2.335 4.2247-6.287 5.4366-7.573 3.3222-3.53 6.7402-7.455 7.3302-12.125 1.0846-3.665-7.4956-1.76-10.088-2.199-1.8176-.308-6.275-1.343-7.2057-3.219-1.9934-4.018 4.4073-6.188 7.2004-7.502 4.0913-1.923 6.2962-2.416 1.9454-4.234-4.6772-1.952-14.6402-1.712-15.758-8.563-.9513-5.836 8.8325-8.259 12.7162-9.153 7.3174-1.69 13.8391-.63 20.7091 2.143 1.602.645 11.3068 4.073 10.6587 1.672-2.0685-5.25-9.0932-6.206-11.8305-11.003-1.5554-2.726-1.6283-5.259-3.6039-7.9452-1.9501-2.6521-5.9612-6.5354-4.1176-10.3026 1.171-2.3905 3.9505-2.7856 6.0556-2.0522 5.1208 1.4074 8.5625 4.6534 13.0777 7.214 3.3047 1.8723 7.0352 1.171 9.9274 3.9572 4.3669 4.3168 8.7516 9.1748 13.5784 13.1978 1.5129 1.261 8.588 6.685 9.0372 2.522.2532-2.343-6.9917-6.361-8.1708-7.227-2.8166-2.069-5.8318-3.788-7.3594-7.125-.8758-1.9124-.4343-3.9664-1.1297-5.4541-2.0578-4.397-8.0031-7.6906-10.6433-11.8767-2.3687-3.7566-7.8788-13.2563-6.2827-17.8 2.1849-6.2216 8.5177.3417 11.6232 2.6644 3.4374 2.5728 6.4245 5.17 10.2037 6.9601 3.335 1.5825 5.7669 3.3236 8.1243 6.3544 4.3558 5.599 7.2582 11.8744 10.7582 17.7684a.5547.5547 0 0 1-.0453-.0551c2.0976 3.3866 5.0818 6.9366 8.6833 8.8626 6.0379 3.227 4.2448-.585 1.2949-4.743-4.446-6.2711-9.8671-11.8482-14.3315-18.0858-1.5903-2.2222-3.1007-4.653-3.3316-7.4658-.1547-1.8869 1.0469-3.3996 1.0875-4.7697.1466-4.7638-14.4438-31.2332-4.4782-32.8504 5.381-.8736 8.6888 11.1321 10.4587 14.2964 2.8267 5.0537 4.227 9.472 9.4924 12.2367-.4916-2.2588 1.3999-3.8495 1.1126-5.8182-.3429-2.3408-2.7941-4.387-4.1301-6.177-3.6729-4.9207-7.0575-10.1587-9.3803-15.8363-7.0859-17.3258 11.3613-4.2279 17.2032.5214 1.1202.9118 2.5635 2.0549 3.8507 3.0738 3.379 2.6658 4.48 2.1623 8.038 3.5523 6.052 2.3665 9.488 13.1891 11.454 18.8949.609 1.7605 10.972 29.4909 14.957 22.3667 2.009-3.5922-4.521-15.5011-6.632-18.977-3.246-5.3442-11.701-12.6894-11.046-19.422.206-2.115 1.829-3.0042 2.126-4.901.699-4.4286-3.474-10.1762-4.566-14.3224-2.223-8.4384 2.355-14.4927 8.414-4.9547 2.397 3.7753 4.174 5.9948 7.273 9.2735 3.535 3.7409 3.454 8.888 6.139 12.8633 2.219 3.2851 1.916.0318 5.509 2.3303 2.982 1.9098 3.52 8.6122 3.899 11.8414.527 4.4848.178 23.0942 6.556 23.1695 5.813.0686 4.073-11.9273 3.367-15.2768-1.765-8.3789-7.205-14.5157-11.847-21.3819-2.262-3.3467-5.069-7.3054-6.172-11.2481-.965-3.4559.168-6.0717.583-9.4037.483-3.8793 1.373-21.7099 9.644-15.9828 5.556 3.8477 3.582 13.6064 8.526 17.8894.531-4.5998-2.333-16.575 4.105-18.63 6.216-1.9831 9.378 11.0977 10.934 15.432.952 2.6589 3.088 18.272 6.35 19.9557 3.406 1.7571 4.482-2.7587 5.348-5.2234 1.484-4.2146 13.14-42.9127 19.929-38.7032 5.266 3.2625-4.216 15.1925-2.183 18.6563.746 1.2732 2.082.2494 3.409.7116 4.862 1.6958 5.746 4.1642 3.522 9.0176 12.956 1.7907-1.049 12.9123-5.562 16.7668-3.074 2.6254-16.463 13.6137-10.018 18.7252 2.167 1.7187 8.221-.0439 10.927.6441 5.221 1.3289 6.019 6.2169 1.971 9.6299-2.783 2.3493-6.988 3.4935-10.535 3.9613-2.036.2709-7.755-.5032-9.148 1.1302 7.645 4.2671 1.147 6.3702-4.465 8.4746-4.197 1.5743-15.204 5.1699-15.222 11.181 6.91-.6365 13.59-3.1364 20.421-4.2552 7.48-1.2217 14.729-2.8092 22.313-4.8344 14.381-3.842 29.583-7.2282 44.261-9.4132 7.179-1.0692 14.322-2.5995 21.424-4.096 2.561-.5416 15.666-5.6966 16.718-.5591 1.421 6.949-18.722 5.6668-22.426 7.8422-26.542 5.0681-52.798 11.6676-79.397 16.066 2.37.571 7.635 4.584 5.742 7.567 2.073.257 5.857-.407 7.452 1.207 3.524 3.573-1.241 3.045-1.924 4.759-1.165 2.93 4.967 3.578 7.228 4.244 10.542 3.096 20.822 8.577 30.61 13.549 5.37 2.729 17.127 15.546 6.644 19.287-5.232 1.868-13.12-2.275-17.549-4.573-2.794-1.449-9.578-7.122-13.031-6.623-.196 4.083 4.99 12.182 6.456 15.743 3.104 7.53 4.479 13.328.621 20.953-9.167 18.114-16.471-14.685-19.04-13.362-1.806.931.763 16.222.993 18.179.508 4.338.676 16.737-5.961 17.335-5.569.501-7.869-10.544-9.128-14.161-1.056-3.034-3.158-6.075-3.962-9.568-.663-2.873-.202-5.927-.791-8.733-.612-2.918-3.04-4.499-3.772-7.783-.826-3.685-.781-8.007-1.265-11.814-.809-6.362-1.564-15.133-7.408-19.271-4.653 10.696 2.162 23.898 4.439 34.42 1.138 5.262 2.811 11.654-1.173 15.951-1.601 1.725-.734-.622-2.482 1.921-.393.57-.521 1.581-.727 2.237-1.469 4.705-2.303 9.551-3.647 14.284-.833 2.935-2.679 12.843-6.466 13.68-6.869 1.518-7.459-22.886-8.064-27.495-.455-3.486-.354-7.297-.961-10.691-.555-3.116-2.516-5.209-2.182-8.76.432-4.599 2.322-9.125 3.266-13.627 1.27-6.056 1.242-11.737.499-17.84-.308-2.528-.688-8.447-3.644-8.96-4.75-.823-3.702 8.728-3.747 11.232-.133 7.415 1.815 15.578-.173 23.671-2.054 8.373 2.764 16.14 2.02 24.527-.269 3.03-.948 4.424-2.88 6.646-2.145 2.474-3.244 3.598-4.341 7.345-.994 3.396-4.789 20.373-10.785 15.372-1.946-1.622-.988-5.271-.932-7.375.121-4.636-.017-9.288.218-13.92.149-2.94 1.022-6.274.281-9.191-.703-2.767-2.236-4.196-1.882-7.371.475-4.274 3.72-9.207 3.411-13.378-.292-3.977-1.789-7.868-1.69-12.166.081-3.419 3.301-21.162.662-22.182-5.364-2.076-5.715 19.839-5.775 21.506-.388 10.629.774 21.963.006 32.656-.259 3.593-2.047 5.445-3.183 8.226-1.51 3.693-1.276 8.621-2.508 12.549-.982 3.132-3.552 11.319-7.506 7.092-2.859-3.054-1.95-11.396-2.417-15.383-.525-4.508-1.372-8.916-1.381-13.467-.002-.979.397-2.898.117-3.781-.783-2.442-3.871-2.953-4.683-5.815.684 2.906.527 5.28-.935 7.812-.38.662-1.831 1.512-2.421 2.277-1.7815 2.306-2.6801 5.729-3.8706 8.388-1.676 3.733-12.6015 21.083-13.4094 8.348-.345-5.443.2341-10.994 1.0195-16.365.6159-4.221 2.2242-9.276 1.5798-13.52-.6692-4.399-1.5981-5.682.3111-10.375 1.9622-4.824 5.789-11.005 4.6539-16.377-2.315-10.945-11.9191 15.29-12.7707 18.18-1.7206 5.838-3.9612 11.925-8.177 16.443-4.6996 5.04-10.2773 8.219-14.1541 14.148-1.7273 2.644-6.7071 11.71-10.9743 8.982-4.2023-2.686 1.3937-12.81 2.4255-15.764 1.0663-3.051 2.7126-6.263 3.464-9.357.6804-2.809.2205-5.531.6965-8.378 1.3465-8.074 7.8851-11.751 11.4545-18.487 1.8843-3.557 1.4995-6.009-3.1069-3.848-2.4879 1.164-4.4648 4.227-6.4704 6.147-3.0158 2.888-6.2672 5.566-9.4076 8.322-4.2397 3.717-27.6456 24.827-32.0898 13.496Z" fill="#89B99A"/>
</svg>