<svg width="120" height="143" fill="none" xmlns="http://www.w3.org/2000/svg">
  <path fill-rule="evenodd" clip-rule="evenodd" d="M16.703 17.3967c-.1172-.0644-.2358-.1296-.3658-.2156h.0245c.0081-.0133.0179-.0274.0283-.0425.0213-.0307.0451-.0651.0615-.1032.0327-.0121.0673-.0222.102-.0324.0347-.0101.0694-.0202.102-.0323.1919.1359.2586.2791.3286.4296.0343.0736.0694.1489.1203.226 7.2392 4.5087 11.2872 2.0884 14.1192-4.2011.3918-.9066.7672-1.886 1.1345-2.9302C35.7029.751 43.5723.6324 51.1832.5176c2.4357-.0367 4.845-.073 7.071-.4243 5.3702-.8337 3.6563 4.1283 1.3303 6.5162-.7678.7984-1.6701 1.4705-2.6046 2.1666-2.3534 1.7531-4.9109 3.6581-6.0383 8.1136 2.1703 0 4.248.0135 6.262.0265h.0004c4.4233.0287 8.5395.0554 12.6557-.067 7.6962-.2266 9.0021 2.5499 4.7581 8.7261-.9296 1.3614-1.6815 2.8494-2.4317 4.3342-.936 1.8523-1.8695 3.6997-3.1425 5.2903-4.448 5.5205-4.35 9.2926 2.9463 11.8667 1.8363.6476 4.2031 2.2665 4.6683 3.9097 2.2147 7.784 7.517 13.6332 12.804 19.4655 5.8575 6.4616 11.6958 12.9025 13.2958 21.9305.075.4154.126.8.172 1.1522v.0002c.255 1.927.382 2.8866 3.542 2.6197 5.386-.5018 11.76-.5666 13.262 6.2487 1.445 6.5-3.232 10.637-8.235 14.069-.681.462-1.201 1.139-1.781 1.896-.254.331-.519.677-.814 1.026.461 1.997 2.206 2.05 3.84 2.1 1.631.049 3.15.095 3.171 2.069.032 3.286-3.518 4.816-5.975 5.569-12.5274 3.861-25.7244 5.172-38.5704 4.913-6.8572-.15-12.8595 2.024-18.8293 4.186-4.3327 1.569-8.6484 3.132-13.2613 3.796-.6756.1-1.3388.249-2.0151.402-2.4447.552-5.059 1.142-9.0355-.443 4.7154-1.698 7.8305-5.142 10.9685-8.611 4.6829-5.176 9.4167-10.409 19.596-9.982a869.9044 869.9044 0 0 1-4.4248-1.841h-.0009c-2.3431-.98-3.815-1.596-5.319-2.142-6.8475-2.452-7.7615-7.22-2.6525-12.741 2.881-3.1 4.8724-6.427-1.6568-7.7706-3.5891-.7336-2.7327-2.2567-1.783-3.9456.685-1.2183 1.4186-2.5228.567-3.6795-1.0936-1.4895 2.4974-1.9104 4.5704-1.6513 6.1373.7851 14.8129 1.8374 12.4298-7.0586-.1937-.7192-.3772-1.5296-.5729-2.3935-1.3545-5.9809-3.2911-14.5316-13.2036-13.2372-10.7404 1.4004-14.111-1.2385-7.3942-10.9035-1.3662-.6063-3.2564.0941-5.0684.7654-3.4378 1.2738-6.5936 2.4431-5.3537-5.6141.0734-.5099-.9386-1.7322-1.1426-1.6756-.7808.2454-1.5787 1.0129-2.3719 1.7759-1.7188 1.6533-3.4153 3.2852-4.8673-.4645-1.036-2.6732.7173-3.38 2.7753-4.2097 2.0923-.8435 4.4997-1.814 4.6108-5.1073-.162-.5214-1.3702-.5331-2.6709-.5456-2.1723-.021-4.6023-.0444-2.8462-2.4494 5.8455-7.9994 1.3733-11.3611-3.6305-15.1224l-.0001-.0001c-.5152-.3873-1.0361-.7788-1.5519-1.1801-.6764-.5224-.4301-1.3099-.1667-2.1521.1243-.3976.2525-.8074.2891-1.2072 0-.0121-.0041-.0283-.0081-.0445a.2068.2068 0 0 1-.0082-.0445c.0245-.3805-.0163-.769-.253-1.1171-.1351-.0921-.2594-.1604-.3851-.2296ZM3.3581 76.3126C1.7095 76.0454-.1676 74.3294.012 71.8605c.359-4.533 14.2906-13.769 20.4769-13.4047 5.6974.311 7.5347 4.1514 9.2617 7.761.6999 1.4629 1.3816 2.8879 2.2949 4.0248-.2694 5.3425-3.5258 8.3618-7.027 8.3779-6.8751.0849-13.802-1.0357-20.6467-2.1431h-.0002l-1.0135-.1638ZM23.0826 2.5624C15.3701 4.6022 10.9221 8.6657 11.469 16.8818c-5.1663.504-3.6677 2.588-2.2865 4.5087.216.3003.429.5966.6134.8823.3987-.8997 1.0927-1.7451 1.8088-2.6173.4563-.5559.9217-1.1227 1.3252-1.7214.4531-.1163.9074-.235 1.362-.3538h.0002c.7163-.1872 1.4332-.3745 2.1472-.5528.6956-1.5212 1.8917-2.8074 3.1048-4.112 2.4729-2.6593 5.0169-5.395 3.5385-10.3531ZM9.5212 24.5553c1.2405-.429.9059-1.287.2693-2.2827-.3183.6962-.506 1.4247-.2693 2.2827Z" fill="#C99B67"/>
</svg>